<?xml version="1.0" encoding="utf-8" ?>
<svg baseProfile="full" height="57.5mm" version="1.1" viewBox="0,0,306.20000000000005,57.5" width="306.20000000000005mm" xmlns="http://www.w3.org/2000/svg" xmlns:ev="http://www.w3.org/2001/xml-events" xmlns:xlink="http://www.w3.org/1999/xlink"><defs /><rect fill="#FFFFFF" height="57.5" width="306.20000000000005" x="0" y="0" /><text fill="#000000" style="font-size:6px; font-family:Arial; font-weight:bold;" x="10" y="10" /><text fill="#000000" style="font-size:3px; font-family:Arial;" x="10" y="14.4">2024: 310 hours</text><text fill="#000000" style="font-size:2.5px; font-family:Arial" x="10" y="18.3">Jan</text><rect fill="#abe6ad" height="4" rx="1" ry="1" width="4" x="10" y="19.7"><title>2024-01-01 11.52 mins</title></rect><rect fill="#abe7ad" height="4" rx="1" ry="1" width="4" x="10" y="25.1"><title>2024-01-02 8.58 mins</title></rect><rect fill="#abe7ad" height="4" rx="1" ry="1" width="4" x="10" y="30.5"><title>2024-01-03 7.42 mins</title></rect><rect fill="#abe7ad" height="4" rx="1" ry="1" width="4" x="10" y="35.9"><title>2024-01-04 6.18 mins</title></rect><rect fill="#abe7ad" height="4" rx="1" ry="1" width="4" x="10" y="41.300000000000004"><title>2024-01-05 7.93 mins</title></rect><rect fill="#aae6ad" height="4" rx="1" ry="1" width="4" x="10" y="46.699999999999996"><title>2024-01-06 12.25 mins</title></rect><rect fill="#abe7ad" height="4" rx="1" ry="1" width="4" x="10" y="52.1"><title>2024-01-07 6.68 mins</title></rect><rect fill="#abe7ad" height="4" rx="1" ry="1" width="4" x="15.4" y="19.7"><title>2024-01-08 7.62 mins</title></rect><rect fill="#abe7ad" height="4" rx="1" ry="1" width="4" x="15.4" y="25.1"><title>2024-01-09 7.0 mins</title></rect><rect fill="#abe7ad" height="4" rx="1" ry="1" width="4" x="15.4" y="30.5"><title>2024-01-10 7.27 mins</title></rect><rect fill="#abe7ad" height="4" rx="1" ry="1" width="4" x="15.4" y="35.9"><title>2024-01-11 6.7 mins</title></rect><rect fill="#abe7ad" height="4" rx="1" ry="1" width="4" x="15.4" y="41.300000000000004"><title>2024-01-12 7.87 mins</title></rect><rect fill="#aae6ac" height="4" rx="1" ry="1" width="4" x="15.4" y="46.699999999999996"><title>2024-01-13 14.55 mins</title></rect><rect fill="#abe6ad" height="4" rx="1" ry="1" width="4" x="15.4" y="52.1"><title>2024-01-14 11.43 mins</title></rect><rect fill="#abe7ad" height="4" rx="1" ry="1" width="4" x="20.8" y="19.7"><title>2024-01-15 6.93 mins</title></rect><rect fill="#abe7ad" height="4" rx="1" ry="1" width="4" x="20.8" y="25.1"><title>2024-01-16 6.17 mins</title></rect><rect fill="#aae6ac" height="4" rx="1" ry="1" width="4" x="20.8" y="30.5"><title>2024-01-17 12.52 mins</title></rect><rect fill="#abe7ad" height="4" rx="1" ry="1" width="4" x="20.8" y="35.9"><title>2024-01-18 6.2 mins</title></rect><rect fill="#abe6ad" height="4" rx="1" ry="1" width="4" x="20.8" y="41.300000000000004"><title>2024-01-19 10.48 mins</title></rect><rect fill="#abe7ad" height="4" rx="1" ry="1" width="4" x="20.8" y="46.699999999999996"><title>2024-01-20 6.3 mins</title></rect><rect fill="#abe7ad" height="4" rx="1" ry="1" width="4" x="20.8" y="52.1"><title>2024-01-21 6.52 mins</title></rect><rect fill="#abe7ad" height="4" rx="1" ry="1" width="4" x="26.200000000000003" y="19.7"><title>2024-01-22 7.83 mins</title></rect><rect fill="#abe7ad" height="4" rx="1" ry="1" width="4" x="26.200000000000003" y="25.1"><title>2024-01-23 8.8 mins</title></rect><rect fill="#abe7ad" height="4" rx="1" ry="1" width="4" x="26.200000000000003" y="30.5"><title>2024-01-24 8.17 mins</title></rect><rect fill="#abe7ad" height="4" rx="1" ry="1" width="4" x="26.200000000000003" y="35.9"><title>2024-01-25 7.2 mins</title></rect><rect fill="#abe7ad" height="4" rx="1" ry="1" width="4" x="26.200000000000003" y="41.300000000000004"><title>2024-01-26 7.82 mins</title></rect><rect fill="#abe7ad" height="4" rx="1" ry="1" width="4" x="26.200000000000003" y="46.699999999999996"><title>2024-01-27 8.08 mins</title></rect><rect fill="#abe7ad" height="4" rx="1" ry="1" width="4" x="26.200000000000003" y="52.1"><title>2024-01-28 8.65 mins</title></rect><rect fill="#abe7ad" height="4" rx="1" ry="1" width="4" x="31.6" y="19.7"><title>2024-01-29 6.93 mins</title></rect><rect fill="#abe7ad" height="4" rx="1" ry="1" width="4" x="31.6" y="25.1"><title>2024-01-30 7.17 mins</title></rect><rect fill="#abe7ad" height="4" rx="1" ry="1" width="4" x="31.6" y="30.5"><title>2024-01-31 6.3 mins</title></rect><rect fill="#abe7ad" height="4" rx="1" ry="1" width="4" x="31.6" y="35.9"><title>2024-02-01 6.2 mins</title></rect><rect fill="#abe6ad" height="4" rx="1" ry="1" width="4" x="31.6" y="41.300000000000004"><title>2024-02-02 9.23 mins</title></rect><rect fill="#abe6ad" height="4" rx="1" ry="1" width="4" x="31.6" y="46.699999999999996"><title>2024-02-03 11.93 mins</title></rect><rect fill="#abe6ad" height="4" rx="1" ry="1" width="4" x="31.6" y="52.1"><title>2024-02-04 9.85 mins</title></rect><text fill="#000000" style="font-size:2.5px; font-family:Arial" x="37.0" y="18.3">Feb</text><rect fill="#aae6ac" height="4" rx="1" ry="1" width="4" x="37.0" y="19.7"><title>2024-02-05 15.4 mins</title></rect><rect fill="#abe6ad" height="4" rx="1" ry="1" width="4" x="37.0" y="25.1"><title>2024-02-06 10.17 mins</title></rect><rect fill="#abe7ad" height="4" rx="1" ry="1" width="4" x="37.0" y="30.5"><title>2024-02-07 8.92 mins</title></rect><rect fill="#abe7ad" height="4" rx="1" ry="1" width="4" x="37.0" y="35.9"><title>2024-02-08 8.6 mins</title></rect><rect fill="#abe6ad" height="4" rx="1" ry="1" width="4" x="37.0" y="41.300000000000004"><title>2024-02-09 9.77 mins</title></rect><rect fill="#aae6ac" height="4" rx="1" ry="1" width="4" x="37.0" y="46.699999999999996"><title>2024-02-10 19.13 mins</title></rect><rect fill="#abe6ad" height="4" rx="1" ry="1" width="4" x="37.0" y="52.1"><title>2024-02-11 9.85 mins</title></rect><rect fill="#abe7ad" height="4" rx="1" ry="1" width="4" x="42.4" y="19.7"><title>2024-02-12 8.9 mins</title></rect><rect fill="#aae6ac" height="4" rx="1" ry="1" width="4" x="42.4" y="25.1"><title>2024-02-13 18.83 mins</title></rect><rect fill="#abe7ad" height="4" rx="1" ry="1" width="4" x="42.4" y="30.5"><title>2024-02-14 8.1 mins</title></rect><rect fill="#abe7ad" height="4" rx="1" ry="1" width="4" x="42.4" y="35.9"><title>2024-02-15 8.62 mins</title></rect><rect fill="#a9e6ac" height="4" rx="1" ry="1" width="4" x="42.4" y="41.300000000000004"><title>2024-02-16 20.48 mins</title></rect><rect fill="#abe7ad" height="4" rx="1" ry="1" width="4" x="42.4" y="46.699999999999996"><title>2024-02-17 8.13 mins</title></rect><rect fill="#aae6ac" height="4" rx="1" ry="1" width="4" x="42.4" y="52.1"><title>2024-02-18 14.57 mins</title></rect><rect fill="#68c06d" height="4" rx="1" ry="1" width="4" x="47.8" y="19.7"><title>2024-02-19 36.5 mins</title></rect><rect fill="#abe6ad" height="4" rx="1" ry="1" width="4" x="47.8" y="25.1"><title>2024-02-20 12.0 mins</title></rect><rect fill="#aae6ac" height="4" rx="1" ry="1" width="4" x="47.8" y="30.5"><title>2024-02-21 16.27 mins</title></rect><rect fill="#aae6ac" height="4" rx="1" ry="1" width="4" x="47.8" y="35.9"><title>2024-02-22 12.48 mins</title></rect><rect fill="#68c06d" height="4" rx="1" ry="1" width="4" x="47.8" y="41.300000000000004"><title>2024-02-23 34.0 mins</title></rect><rect fill="#68c06d" height="4" rx="1" ry="1" width="4" x="47.8" y="46.699999999999996"><title>2024-02-24 39.38 mins</title></rect><rect fill="#67bf6c" height="4" rx="1" ry="1" width="4" x="47.8" y="52.1"><title>2024-02-25 59.08 mins</title></rect><rect fill="#67bf6c" height="4" rx="1" ry="1" width="4" x="53.199999999999996" y="19.7"><title>2024-02-26 49.5 mins</title></rect><rect fill="#549F57" height="4" rx="1" ry="1" width="4" x="53.199999999999996" y="25.1"><title>2024-02-27 93.28 mins</title></rect><rect fill="#abe7ad" height="4" rx="1" ry="1" width="4" x="53.199999999999996" y="30.5"><title>2024-02-28 8.35 mins</title></rect><rect fill="#abe7ad" height="4" rx="1" ry="1" width="4" x="53.199999999999996" y="35.9"><title>2024-02-29 7.93 mins</title></rect><rect fill="#abe7ad" height="4" rx="1" ry="1" width="4" x="53.199999999999996" y="41.300000000000004"><title>2024-03-01 6.48 mins</title></rect><rect fill="#abe7ad" height="4" rx="1" ry="1" width="4" x="53.199999999999996" y="46.699999999999996"><title>2024-03-02 6.83 mins</title></rect><rect fill="#abe6ad" height="4" rx="1" ry="1" width="4" x="53.199999999999996" y="52.1"><title>2024-03-03 11.92 mins</title></rect><text fill="#000000" style="font-size:2.5px; font-family:Arial" x="58.599999999999994" y="18.3">Mar</text><rect fill="#549F57" height="4" rx="1" ry="1" width="4" x="58.599999999999994" y="19.7"><title>2024-03-04 86.6 mins</title></rect><rect fill="#549F57" height="4" rx="1" ry="1" width="4" x="58.599999999999994" y="25.1"><title>2024-03-05 122.8 mins</title></rect><rect fill="#aae6ac" height="4" rx="1" ry="1" width="4" x="58.599999999999994" y="30.5"><title>2024-03-06 17.93 mins</title></rect><rect fill="#68c06d" height="4" rx="1" ry="1" width="4" x="58.599999999999994" y="35.9"><title>2024-03-07 35.67 mins</title></rect><rect fill="#abe7ad" height="4" rx="1" ry="1" width="4" x="58.599999999999994" y="41.300000000000004"><title>2024-03-08 7.7 mins</title></rect><rect fill="#aae6ac" height="4" rx="1" ry="1" width="4" x="58.599999999999994" y="46.699999999999996"><title>2024-03-09 13.77 mins</title></rect><rect fill="#ace7ae" height="4" rx="1" ry="1" width="4" x="58.599999999999994" y="52.1"><title>2024-03-10 2.1 mins</title></rect><rect fill="#ace7ae" height="4" rx="1" ry="1" width="4" x="63.99999999999999" y="19.7"><title>2024-03-11 3.82 mins</title></rect><rect fill="#67bf6c" height="4" rx="1" ry="1" width="4" x="63.99999999999999" y="25.1"><title>2024-03-12 49.92 mins</title></rect><rect fill="#abe7ad" height="4" rx="1" ry="1" width="4" x="63.99999999999999" y="30.5"><title>2024-03-13 8.88 mins</title></rect><rect fill="#ace7ae" height="4" rx="1" ry="1" width="4" x="63.99999999999999" y="35.9"><title>2024-03-14 1.5 mins</title></rect><rect fill="#abe6ad" height="4" rx="1" ry="1" width="4" x="63.99999999999999" y="41.300000000000004"><title>2024-03-15 11.48 mins</title></rect><rect fill="#abe7ad" height="4" rx="1" ry="1" width="4" x="63.99999999999999" y="46.699999999999996"><title>2024-03-16 6.0 mins</title></rect><rect fill="#ace7ae" height="4" rx="1" ry="1" width="4" x="63.99999999999999" y="52.1"><title>2024-03-17 2.0 mins</title></rect><rect fill="#abe7ad" height="4" rx="1" ry="1" width="4" x="69.39999999999999" y="19.7"><title>2024-03-18 5.52 mins</title></rect><rect fill="#aae6ac" height="4" rx="1" ry="1" width="4" x="69.39999999999999" y="25.1"><title>2024-03-19 14.18 mins</title></rect><rect fill="#abe7ad" height="4" rx="1" ry="1" width="4" x="69.39999999999999" y="30.5"><title>2024-03-20 5.18 mins</title></rect><rect fill="#abe7ad" height="4" rx="1" ry="1" width="4" x="69.39999999999999" y="35.9"><title>2024-03-21 5.33 mins</title></rect><rect fill="#abe7ad" height="4" rx="1" ry="1" width="4" x="69.39999999999999" y="41.300000000000004"><title>2024-03-22 7.98 mins</title></rect><rect fill="#abe7ad" height="4" rx="1" ry="1" width="4" x="69.39999999999999" y="46.699999999999996"><title>2024-03-23 4.75 mins</title></rect><rect fill="#ace7ae" height="4" rx="1" ry="1" width="4" x="69.39999999999999" y="52.1"><title>2024-03-24 2.2 mins</title></rect><rect fill="#ace7ae" height="4" rx="1" ry="1" width="4" x="74.8" y="19.7"><title>2024-03-25 3.9 mins</title></rect><rect fill="#abe6ad" height="4" rx="1" ry="1" width="4" x="74.8" y="25.1"><title>2024-03-26 12.05 mins</title></rect><rect fill="#a9e6ab" height="4" rx="1" ry="1" width="4" x="74.8" y="30.5"><title>2024-03-27 20.88 mins</title></rect><rect fill="#aae6ac" height="4" rx="1" ry="1" width="4" x="74.8" y="35.9"><title>2024-03-28 13.5 mins</title></rect><rect fill="#abe6ad" height="4" rx="1" ry="1" width="4" x="74.8" y="41.300000000000004"><title>2024-03-29 11.8 mins</title></rect><rect fill="#ace7ae" height="4" rx="1" ry="1" width="4" x="74.8" y="46.699999999999996"><title>2024-03-30 1.7 mins</title></rect><rect fill="#549F57" height="4" rx="1" ry="1" width="4" x="74.8" y="52.1"><title>2024-03-31 99.15 mins</title></rect><text fill="#000000" style="font-size:2.5px; font-family:Arial" x="80.2" y="18.3">Apr</text><rect fill="#ace7ae" height="4" rx="1" ry="1" width="4" x="80.2" y="19.7"><title>2024-04-01 2.35 mins</title></rect><rect fill="#abe7ad" height="4" rx="1" ry="1" width="4" x="80.2" y="25.1"><title>2024-04-02 7.9 mins</title></rect><rect fill="#abe6ad" height="4" rx="1" ry="1" width="4" x="80.2" y="30.5"><title>2024-04-03 9.92 mins</title></rect><rect fill="#a9e6ab" height="4" rx="1" ry="1" width="4" x="80.2" y="35.9"><title>2024-04-04 21.72 mins</title></rect><rect fill="#aae6ac" height="4" rx="1" ry="1" width="4" x="80.2" y="41.300000000000004"><title>2024-04-05 19.4 mins</title></rect><rect fill="#a9e6ab" height="4" rx="1" ry="1" width="4" x="80.2" y="46.699999999999996"><title>2024-04-06 22.65 mins</title></rect><rect fill="#549F57" height="4" rx="1" ry="1" width="4" x="80.2" y="52.1"><title>2024-04-07 113.35 mins</title></rect><rect fill="#a9e6ab" height="4" rx="1" ry="1" width="4" x="85.60000000000001" y="19.7"><title>2024-04-08 25.47 mins</title></rect><rect fill="#aae6ac" height="4" rx="1" ry="1" width="4" x="85.60000000000001" y="25.1"><title>2024-04-09 19.48 mins</title></rect><rect fill="#abe6ad" height="4" rx="1" ry="1" width="4" x="85.60000000000001" y="30.5"><title>2024-04-10 10.0 mins</title></rect><rect fill="#68c06d" height="4" rx="1" ry="1" width="4" x="85.60000000000001" y="35.9"><title>2024-04-11 35.87 mins</title></rect><rect fill="#abe7ad" height="4" rx="1" ry="1" width="4" x="85.60000000000001" y="41.300000000000004"><title>2024-04-12 5.0 mins</title></rect><rect fill="#aae6ac" height="4" rx="1" ry="1" width="4" x="85.60000000000001" y="46.699999999999996"><title>2024-04-13 19.95 mins</title></rect><rect fill="#a9e6ab" height="4" rx="1" ry="1" width="4" x="85.60000000000001" y="52.1"><title>2024-04-14 22.0 mins</title></rect><rect fill="#abe7ad" height="4" rx="1" ry="1" width="4" x="91.00000000000001" y="19.7"><title>2024-04-15 7.5 mins</title></rect><rect fill="#aae6ac" height="4" rx="1" ry="1" width="4" x="91.00000000000001" y="25.1"><title>2024-04-16 13.97 mins</title></rect><rect fill="#ace7ae" height="4" rx="1" ry="1" width="4" x="91.00000000000001" y="30.5"><title>2024-04-17 2.5 mins</title></rect><rect fill="#aae6ac" height="4" rx="1" ry="1" width="4" x="91.00000000000001" y="35.9"><title>2024-04-18 17.77 mins</title></rect><rect fill="#aae6ac" height="4" rx="1" ry="1" width="4" x="91.00000000000001" y="41.300000000000004"><title>2024-04-19 16.83 mins</title></rect><rect fill="#aae6ac" height="4" rx="1" ry="1" width="4" x="91.00000000000001" y="46.699999999999996"><title>2024-04-20 19.37 mins</title></rect><rect fill="#aae6ac" height="4" rx="1" ry="1" width="4" x="91.00000000000001" y="52.1"><title>2024-04-21 14.97 mins</title></rect><rect fill="#aae6ac" height="4" rx="1" ry="1" width="4" x="96.40000000000002" y="19.7"><title>2024-04-22 13.68 mins</title></rect><rect fill="#aae6ac" height="4" rx="1" ry="1" width="4" x="96.40000000000002" y="25.1"><title>2024-04-23 14.0 mins</title></rect><rect fill="#aae6ac" height="4" rx="1" ry="1" width="4" x="96.40000000000002" y="30.5"><title>2024-04-24 18.5 mins</title></rect><rect fill="#68c06d" height="4" rx="1" ry="1" width="4" x="96.40000000000002" y="35.9"><title>2024-04-25 31.3 mins</title></rect><rect fill="#549F57" height="4" rx="1" ry="1" width="4" x="96.40000000000002" y="41.300000000000004"><title>2024-04-26 124.08 mins</title></rect><rect fill="#68c06d" height="4" rx="1" ry="1" width="4" x="96.40000000000002" y="46.699999999999996"><title>2024-04-27 29.18 mins</title></rect><rect fill="#abe6ad" height="4" rx="1" ry="1" width="4" x="96.40000000000002" y="52.1"><title>2024-04-28 9.37 mins</title></rect><rect fill="#abe6ad" height="4" rx="1" ry="1" width="4" x="101.80000000000003" y="19.7"><title>2024-04-29 12.0 mins</title></rect><rect fill="#68c06c" height="4" rx="1" ry="1" width="4" x="101.80000000000003" y="25.1"><title>2024-04-30 47.42 mins</title></rect><rect fill="#abe7ad" height="4" rx="1" ry="1" width="4" x="101.80000000000003" y="30.5"><title>2024-05-01 7.0 mins</title></rect><rect fill="#ace7ae" height="4" rx="1" ry="1" width="4" x="101.80000000000003" y="35.9"><title>2024-05-02 4.0 mins</title></rect><rect fill="#abe7ad" height="4" rx="1" ry="1" width="4" x="101.80000000000003" y="41.300000000000004"><title>2024-05-03 5.0 mins</title></rect><rect fill="#a9e6ab" height="4" rx="1" ry="1" width="4" x="101.80000000000003" y="46.699999999999996"><title>2024-05-04 21.63 mins</title></rect><rect fill="#abe7ad" height="4" rx="1" ry="1" width="4" x="101.80000000000003" y="52.1"><title>2024-05-05 8.5 mins</title></rect><text fill="#000000" style="font-size:2.5px; font-family:Arial" x="107.20000000000003" y="18.3">May</text><rect fill="#a9e6ab" height="4" rx="1" ry="1" width="4" x="107.20000000000003" y="19.7"><title>2024-05-06 26.5 mins</title></rect><rect fill="#aae6ac" height="4" rx="1" ry="1" width="4" x="107.20000000000003" y="25.1"><title>2024-05-07 18.15 mins</title></rect><rect fill="#aae6ac" height="4" rx="1" ry="1" width="4" x="107.20000000000003" y="30.5"><title>2024-05-08 18.27 mins</title></rect><rect fill="#67bf6c" height="4" rx="1" ry="1" width="4" x="107.20000000000003" y="35.9"><title>2024-05-09 53.32 mins</title></rect><rect fill="#abe6ad" height="4" rx="1" ry="1" width="4" x="107.20000000000003" y="41.300000000000004"><title>2024-05-10 11.05 mins</title></rect><rect fill="#549F57" height="4" rx="1" ry="1" width="4" x="107.20000000000003" y="46.699999999999996"><title>2024-05-11 108.37 mins</title></rect><rect fill="#67bf6c" height="4" rx="1" ry="1" width="4" x="107.20000000000003" y="52.1"><title>2024-05-12 70.6 mins</title></rect><rect fill="#aae6ac" height="4" rx="1" ry="1" width="4" x="112.60000000000004" y="19.7"><title>2024-05-13 13.5 mins</title></rect><rect fill="#aae6ac" height="4" rx="1" ry="1" width="4" x="112.60000000000004" y="25.1"><title>2024-05-14 15.9 mins</title></rect><rect fill="#aae6ac" height="4" rx="1" ry="1" width="4" x="112.60000000000004" y="30.5"><title>2024-05-15 16.83 mins</title></rect><rect fill="#aae6ac" height="4" rx="1" ry="1" width="4" x="112.60000000000004" y="35.9"><title>2024-05-16 14.25 mins</title></rect><rect fill="#abe6ad" height="4" rx="1" ry="1" width="4" x="112.60000000000004" y="41.300000000000004"><title>2024-05-17 10.5 mins</title></rect><rect fill="#ace7ae" height="4" rx="1" ry="1" width="4" x="112.60000000000004" y="46.699999999999996"><title>2024-05-18 3.0 mins</title></rect><rect fill="#a9e6ab" height="4" rx="1" ry="1" width="4" x="112.60000000000004" y="52.1"><title>2024-05-19 22.0 mins</title></rect><rect fill="#a9e6ab" height="4" rx="1" ry="1" width="4" x="118.00000000000004" y="19.7"><title>2024-05-20 26.55 mins</title></rect><rect fill="#abe7ad" height="4" rx="1" ry="1" width="4" x="118.00000000000004" y="25.1"><title>2024-05-21 8.13 mins</title></rect><rect fill="#68c06d" height="4" rx="1" ry="1" width="4" x="118.00000000000004" y="30.5"><title>2024-05-22 39.3 mins</title></rect><rect fill="#aae6ac" height="4" rx="1" ry="1" width="4" x="118.00000000000004" y="35.9"><title>2024-05-23 12.5 mins</title></rect><rect fill="#ace7ae" height="4" rx="1" ry="1" width="4" x="118.00000000000004" y="41.300000000000004"><title>2024-05-24 3.0 mins</title></rect><rect fill="#abe7ad" height="4" rx="1" ry="1" width="4" x="118.00000000000004" y="46.699999999999996"><title>2024-05-25 5.0 mins</title></rect><rect fill="#ace7ae" height="4" rx="1" ry="1" width="4" x="118.00000000000004" y="52.1"><title>2024-05-26 4.0 mins</title></rect><rect fill="#ace7ae" height="4" rx="1" ry="1" width="4" x="123.40000000000005" y="19.7"><title>2024-05-27 3.0 mins</title></rect><rect fill="#abe7ad" height="4" rx="1" ry="1" width="4" x="123.40000000000005" y="25.1"><title>2024-05-28 5.08 mins</title></rect><rect fill="#abe7ad" height="4" rx="1" ry="1" width="4" x="123.40000000000005" y="30.5"><title>2024-05-29 5.0 mins</title></rect><rect fill="#abe7ad" height="4" rx="1" ry="1" width="4" x="123.40000000000005" y="35.9"><title>2024-05-30 7.05 mins</title></rect><rect fill="#abe7ad" height="4" rx="1" ry="1" width="4" x="123.40000000000005" y="41.300000000000004"><title>2024-05-31 6.72 mins</title></rect><rect fill="#67bf6c" height="4" rx="1" ry="1" width="4" x="123.40000000000005" y="46.699999999999996"><title>2024-06-01 63.93 mins</title></rect><rect fill="#67bf6c" height="4" rx="1" ry="1" width="4" x="123.40000000000005" y="52.1"><title>2024-06-02 53.95 mins</title></rect><text fill="#000000" style="font-size:2.5px; font-family:Arial" x="128.80000000000004" y="18.3">Jun</text><rect fill="#67bf6c" height="4" rx="1" ry="1" width="4" x="128.80000000000004" y="19.7"><title>2024-06-03 66.7 mins</title></rect><rect fill="#abe7ad" height="4" rx="1" ry="1" width="4" x="128.80000000000004" y="25.1"><title>2024-06-04 7.0 mins</title></rect><rect fill="#abe7ad" height="4" rx="1" ry="1" width="4" x="128.80000000000004" y="30.5"><title>2024-06-05 5.0 mins</title></rect><rect fill="#68c06c" height="4" rx="1" ry="1" width="4" x="128.80000000000004" y="35.9"><title>2024-06-06 48.22 mins</title></rect><rect fill="#aae6ac" height="4" rx="1" ry="1" width="4" x="128.80000000000004" y="41.300000000000004"><title>2024-06-07 19.75 mins</title></rect><rect fill="#aae6ac" height="4" rx="1" ry="1" width="4" x="128.80000000000004" y="46.699999999999996"><title>2024-06-08 15.88 mins</title></rect><rect fill="#abe7ad" height="4" rx="1" ry="1" width="4" x="128.80000000000004" y="52.1"><title>2024-06-09 8.73 mins</title></rect><rect fill="#aae6ac" height="4" rx="1" ry="1" width="4" x="134.20000000000005" y="19.7"><title>2024-06-10 19.63 mins</title></rect><rect fill="#ace7ae" height="4" rx="1" ry="1" width="4" x="134.20000000000005" y="25.1"><title>2024-06-11 1.77 mins</title></rect><rect fill="#ace7ae" height="4" rx="1" ry="1" width="4" x="134.20000000000005" y="30.5"><title>2024-06-12 0.93 mins</title></rect><rect fill="#aae6ac" height="4" rx="1" ry="1" width="4" x="134.20000000000005" y="35.9"><title>2024-06-13 16.33 mins</title></rect><rect fill="#68c06d" height="4" rx="1" ry="1" width="4" x="134.20000000000005" y="41.300000000000004"><title>2024-06-14 33.78 mins</title></rect><rect fill="#abe7ad" height="4" rx="1" ry="1" width="4" x="134.20000000000005" y="46.699999999999996"><title>2024-06-15 6.73 mins</title></rect><rect fill="#abe7ad" height="4" rx="1" ry="1" width="4" x="134.20000000000005" y="52.1"><title>2024-06-16 7.93 mins</title></rect><rect fill="#abe7ad" height="4" rx="1" ry="1" width="4" x="139.60000000000005" y="19.7"><title>2024-06-17 6.87 mins</title></rect><rect fill="#aae6ac" height="4" rx="1" ry="1" width="4" x="139.60000000000005" y="25.1"><title>2024-06-18 20.07 mins</title></rect><rect fill="#aae6ac" height="4" rx="1" ry="1" width="4" x="139.60000000000005" y="30.5"><title>2024-06-19 18.43 mins</title></rect><rect fill="#abe7ad" height="4" rx="1" ry="1" width="4" x="139.60000000000005" y="35.9"><title>2024-06-20 4.92 mins</title></rect><rect fill="#ace7ae" height="4" rx="1" ry="1" width="4" x="139.60000000000005" y="41.300000000000004"><title>2024-06-21 0.82 mins</title></rect><rect fill="#abe7ad" height="4" rx="1" ry="1" width="4" x="139.60000000000005" y="46.699999999999996"><title>2024-06-22 7.95 mins</title></rect><rect fill="#abe7ae" height="4" rx="1" ry="1" width="4" x="139.60000000000005" y="52.1"><title>2024-06-23 4.12 mins</title></rect><rect fill="#aae6ac" height="4" rx="1" ry="1" width="4" x="145.00000000000006" y="19.7"><title>2024-06-24 16.9 mins</title></rect><rect fill="#ace7ae" height="4" rx="1" ry="1" width="4" x="145.00000000000006" y="25.1"><title>2024-06-25 3.37 mins</title></rect><rect fill="#ace7ae" height="4" rx="1" ry="1" width="4" x="145.00000000000006" y="30.5"><title>2024-06-26 1.88 mins</title></rect><rect fill="#ace7ae" height="4" rx="1" ry="1" width="4" x="145.00000000000006" y="35.9"><title>2024-06-27 1.58 mins</title></rect><rect fill="#ace7ae" height="4" rx="1" ry="1" width="4" x="145.00000000000006" y="41.300000000000004"><title>2024-06-28 3.05 mins</title></rect><rect fill="#abe6ad" height="4" rx="1" ry="1" width="4" x="145.00000000000006" y="46.699999999999996"><title>2024-06-29 11.12 mins</title></rect><rect fill="#abe7ad" height="4" rx="1" ry="1" width="4" x="145.00000000000006" y="52.1"><title>2024-06-30 5.57 mins</title></rect><text fill="#000000" style="font-size:2.5px; font-family:Arial" x="150.40000000000006" y="18.3">Jul</text><rect fill="#abe7ad" height="4" rx="1" ry="1" width="4" x="150.40000000000006" y="19.7"><title>2024-07-01 6.02 mins</title></rect><rect fill="#ace7ae" height="4" rx="1" ry="1" width="4" x="150.40000000000006" y="25.1"><title>2024-07-02 1.67 mins</title></rect><rect fill="#a9e6ab" height="4" rx="1" ry="1" width="4" x="150.40000000000006" y="30.5"><title>2024-07-03 21.88 mins</title></rect><rect fill="#abe7ad" height="4" rx="1" ry="1" width="4" x="150.40000000000006" y="35.9"><title>2024-07-04 6.37 mins</title></rect><rect fill="#67bf6c" height="4" rx="1" ry="1" width="4" x="150.40000000000006" y="41.300000000000004"><title>2024-07-05 67.75 mins</title></rect><rect fill="#abe7ad" height="4" rx="1" ry="1" width="4" x="150.40000000000006" y="46.699999999999996"><title>2024-07-06 6.43 mins</title></rect><rect fill="#aae6ac" height="4" rx="1" ry="1" width="4" x="150.40000000000006" y="52.1"><title>2024-07-07 17.07 mins</title></rect><rect fill="#549F57" height="4" rx="1" ry="1" width="4" x="155.80000000000007" y="19.7"><title>2024-07-08 85.27 mins</title></rect><rect fill="#549F57" height="4" rx="1" ry="1" width="4" x="155.80000000000007" y="25.1"><title>2024-07-09 275.8 mins</title></rect><rect fill="#549F57" height="4" rx="1" ry="1" width="4" x="155.80000000000007" y="30.5"><title>2024-07-10 466.45 mins</title></rect><rect fill="#549F57" height="4" rx="1" ry="1" width="4" x="155.80000000000007" y="35.9"><title>2024-07-11 475.7 mins</title></rect><rect fill="#549F57" height="4" rx="1" ry="1" width="4" x="155.80000000000007" y="41.300000000000004"><title>2024-07-12 255.2 mins</title></rect><rect fill="#549F57" height="4" rx="1" ry="1" width="4" x="155.80000000000007" y="46.699999999999996"><title>2024-07-13 256.65 mins</title></rect><rect fill="#549F57" height="4" rx="1" ry="1" width="4" x="155.80000000000007" y="52.1"><title>2024-07-14 240.0 mins</title></rect><rect fill="#549F57" height="4" rx="1" ry="1" width="4" x="161.20000000000007" y="19.7"><title>2024-07-15 588.5 mins</title></rect><rect fill="#549F57" height="4" rx="1" ry="1" width="4" x="161.20000000000007" y="25.1"><title>2024-07-16 275.12 mins</title></rect><rect fill="#549F57" height="4" rx="1" ry="1" width="4" x="161.20000000000007" y="30.5"><title>2024-07-17 380.28 mins</title></rect><rect fill="#549F57" height="4" rx="1" ry="1" width="4" x="161.20000000000007" y="35.9"><title>2024-07-18 614.2 mins</title></rect><rect fill="#549F57" height="4" rx="1" ry="1" width="4" x="161.20000000000007" y="41.300000000000004"><title>2024-07-19 247.35 mins</title></rect><rect fill="#EBEDF0" height="4" rx="1" ry="1" width="4" x="161.20000000000007" y="46.699999999999996"><title>2024-07-20</title></rect><rect fill="#549F57" height="4" rx="1" ry="1" width="4" x="161.20000000000007" y="52.1"><title>2024-07-21 486.78 mins</title></rect><rect fill="#abe6ad" height="4" rx="1" ry="1" width="4" x="166.60000000000008" y="19.7"><title>2024-07-22 10.5 mins</title></rect><rect fill="#549F57" height="4" rx="1" ry="1" width="4" x="166.60000000000008" y="25.1"><title>2024-07-23 92.37 mins</title></rect><rect fill="#549F57" height="4" rx="1" ry="1" width="4" x="166.60000000000008" y="30.5"><title>2024-07-24 296.17 mins</title></rect><rect fill="#549F57" height="4" rx="1" ry="1" width="4" x="166.60000000000008" y="35.9"><title>2024-07-25 716.73 mins</title></rect><rect fill="#549F57" height="4" rx="1" ry="1" width="4" x="166.60000000000008" y="41.300000000000004"><title>2024-07-26 430.1 mins</title></rect><rect fill="#549F57" height="4" rx="1" ry="1" width="4" x="166.60000000000008" y="46.699999999999996"><title>2024-07-27 569.07 mins</title></rect><rect fill="#549F57" height="4" rx="1" ry="1" width="4" x="166.60000000000008" y="52.1"><title>2024-07-28 282.05 mins</title></rect><rect fill="#549F57" height="4" rx="1" ry="1" width="4" x="172.00000000000009" y="19.7"><title>2024-07-29 93.95 mins</title></rect><rect fill="#549F57" height="4" rx="1" ry="1" width="4" x="172.00000000000009" y="25.1"><title>2024-07-30 221.12 mins</title></rect><rect fill="#549F57" height="4" rx="1" ry="1" width="4" x="172.00000000000009" y="30.5"><title>2024-07-31 83.48 mins</title></rect><rect fill="#549F57" height="4" rx="1" ry="1" width="4" x="172.00000000000009" y="35.9"><title>2024-08-01 898.38 mins</title></rect><rect fill="#549F57" height="4" rx="1" ry="1" width="4" x="172.00000000000009" y="41.300000000000004"><title>2024-08-02 772.25 mins</title></rect><rect fill="#549F57" height="4" rx="1" ry="1" width="4" x="172.00000000000009" y="46.699999999999996"><title>2024-08-03 309.4 mins</title></rect><rect fill="#549F57" height="4" rx="1" ry="1" width="4" x="172.00000000000009" y="52.1"><title>2024-08-04 454.22 mins</title></rect><text fill="#000000" style="font-size:2.5px; font-family:Arial" x="177.4000000000001" y="18.3">Aug</text><rect fill="#549F57" height="4" rx="1" ry="1" width="4" x="177.4000000000001" y="19.7"><title>2024-08-05 703.65 mins</title></rect><rect fill="#68c06d" height="4" rx="1" ry="1" width="4" x="177.4000000000001" y="25.1"><title>2024-08-06 34.22 mins</title></rect><rect fill="#EBEDF0" height="4" rx="1" ry="1" width="4" x="177.4000000000001" y="30.5"><title>2024-08-07</title></rect><rect fill="#abe7ad" height="4" rx="1" ry="1" width="4" x="177.4000000000001" y="35.9"><title>2024-08-08 8.47 mins</title></rect><rect fill="#abe7ad" height="4" rx="1" ry="1" width="4" x="177.4000000000001" y="41.300000000000004"><title>2024-08-09 8.65 mins</title></rect><rect fill="#aae6ac" height="4" rx="1" ry="1" width="4" x="177.4000000000001" y="46.699999999999996"><title>2024-08-10 15.35 mins</title></rect><rect fill="#abe6ad" height="4" rx="1" ry="1" width="4" x="177.4000000000001" y="52.1"><title>2024-08-11 11.9 mins</title></rect><rect fill="#68c06d" height="4" rx="1" ry="1" width="4" x="182.8000000000001" y="19.7"><title>2024-08-12 28.23 mins</title></rect><rect fill="#aae6ac" height="4" rx="1" ry="1" width="4" x="182.8000000000001" y="25.1"><title>2024-08-13 16.55 mins</title></rect><rect fill="#68c06d" height="4" rx="1" ry="1" width="4" x="182.8000000000001" y="30.5"><title>2024-08-14 34.9 mins</title></rect><rect fill="#abe7ad" height="4" rx="1" ry="1" width="4" x="182.8000000000001" y="35.9"><title>2024-08-15 8.2 mins</title></rect><rect fill="#a9e5ab" height="4" rx="1" ry="1" width="4" x="182.8000000000001" y="41.300000000000004"><title>2024-08-16 27.67 mins</title></rect><rect fill="#aae6ac" height="4" rx="1" ry="1" width="4" x="182.8000000000001" y="46.699999999999996"><title>2024-08-17 15.5 mins</title></rect><rect fill="#aae6ac" height="4" rx="1" ry="1" width="4" x="182.8000000000001" y="52.1"><title>2024-08-18 14.47 mins</title></rect><rect fill="#67bf6c" height="4" rx="1" ry="1" width="4" x="188.2000000000001" y="19.7"><title>2024-08-19 57.2 mins</title></rect><rect fill="#549F57" height="4" rx="1" ry="1" width="4" x="188.2000000000001" y="25.1"><title>2024-08-20 130.33 mins</title></rect><rect fill="#abe6ad" height="4" rx="1" ry="1" width="4" x="188.2000000000001" y="30.5"><title>2024-08-21 9.68 mins</title></rect><rect fill="#a9e6ab" height="4" rx="1" ry="1" width="4" x="188.2000000000001" y="35.9"><title>2024-08-22 27.08 mins</title></rect><rect fill="#aae6ac" height="4" rx="1" ry="1" width="4" x="188.2000000000001" y="41.300000000000004"><title>2024-08-23 19.18 mins</title></rect><rect fill="#aae6ac" height="4" rx="1" ry="1" width="4" x="188.2000000000001" y="46.699999999999996"><title>2024-08-24 15.42 mins</title></rect><rect fill="#abe6ad" height="4" rx="1" ry="1" width="4" x="188.2000000000001" y="52.1"><title>2024-08-25 9.83 mins</title></rect><rect fill="#549F57" height="4" rx="1" ry="1" width="4" x="193.6000000000001" y="19.7"><title>2024-08-26 109.3 mins</title></rect><rect fill="#67bf6c" height="4" rx="1" ry="1" width="4" x="193.6000000000001" y="25.1"><title>2024-08-27 51.88 mins</title></rect><rect fill="#68c06d" height="4" rx="1" ry="1" width="4" x="193.6000000000001" y="30.5"><title>2024-08-28 43.47 mins</title></rect><rect fill="#a9e6ab" height="4" rx="1" ry="1" width="4" x="193.6000000000001" y="35.9"><title>2024-08-29 22.28 mins</title></rect><rect fill="#67bf6c" height="4" rx="1" ry="1" width="4" x="193.6000000000001" y="41.300000000000004"><title>2024-08-30 64.88 mins</title></rect><rect fill="#abe7ad" height="4" rx="1" ry="1" width="4" x="193.6000000000001" y="46.699999999999996"><title>2024-08-31 6.98 mins</title></rect><rect fill="#aae6ac" height="4" rx="1" ry="1" width="4" x="193.6000000000001" y="52.1"><title>2024-09-01 13.47 mins</title></rect><text fill="#000000" style="font-size:2.5px; font-family:Arial" x="199.0000000000001" y="18.3">Sep</text><rect fill="#aae6ac" height="4" rx="1" ry="1" width="4" x="199.0000000000001" y="19.7"><title>2024-09-02 19.52 mins</title></rect><rect fill="#aae6ac" height="4" rx="1" ry="1" width="4" x="199.0000000000001" y="25.1"><title>2024-09-03 16.8 mins</title></rect><rect fill="#549F57" height="4" rx="1" ry="1" width="4" x="199.0000000000001" y="30.5"><title>2024-09-04 88.97 mins</title></rect><rect fill="#abe6ad" height="4" rx="1" ry="1" width="4" x="199.0000000000001" y="35.9"><title>2024-09-05 9.47 mins</title></rect><rect fill="#abe7ad" height="4" rx="1" ry="1" width="4" x="199.0000000000001" y="41.300000000000004"><title>2024-09-06 5.87 mins</title></rect><rect fill="#abe7ad" height="4" rx="1" ry="1" width="4" x="199.0000000000001" y="46.699999999999996"><title>2024-09-07 7.8 mins</title></rect><rect fill="#abe7ad" height="4" rx="1" ry="1" width="4" x="199.0000000000001" y="52.1"><title>2024-09-08 7.15 mins</title></rect><rect fill="#aae6ac" height="4" rx="1" ry="1" width="4" x="204.40000000000012" y="19.7"><title>2024-09-09 15.92 mins</title></rect><rect fill="#68c06d" height="4" rx="1" ry="1" width="4" x="204.40000000000012" y="25.1"><title>2024-09-10 36.83 mins</title></rect><rect fill="#549F57" height="4" rx="1" ry="1" width="4" x="204.40000000000012" y="30.5"><title>2024-09-11 117.63 mins</title></rect><rect fill="#a9e6ac" height="4" rx="1" ry="1" width="4" x="204.40000000000012" y="35.9"><title>2024-09-12 20.7 mins</title></rect><rect fill="#abe7ad" height="4" rx="1" ry="1" width="4" x="204.40000000000012" y="41.300000000000004"><title>2024-09-13 8.97 mins</title></rect><rect fill="#aae6ac" height="4" rx="1" ry="1" width="4" x="204.40000000000012" y="46.699999999999996"><title>2024-09-14 14.53 mins</title></rect><rect fill="#aae6ad" height="4" rx="1" ry="1" width="4" x="204.40000000000012" y="52.1"><title>2024-09-15 12.33 mins</title></rect><rect fill="#aae6ac" height="4" rx="1" ry="1" width="4" x="209.80000000000013" y="19.7"><title>2024-09-16 14.53 mins</title></rect><rect fill="#549F57" height="4" rx="1" ry="1" width="4" x="209.80000000000013" y="25.1"><title>2024-09-17 102.15 mins</title></rect><rect fill="#abe6ad" height="4" rx="1" ry="1" width="4" x="209.80000000000013" y="30.5"><title>2024-09-18 10.75 mins</title></rect><rect fill="#aae6ac" height="4" rx="1" ry="1" width="4" x="209.80000000000013" y="35.9"><title>2024-09-19 15.43 mins</title></rect><rect fill="#67bf6c" height="4" rx="1" ry="1" width="4" x="209.80000000000013" y="41.300000000000004"><title>2024-09-20 65.52 mins</title></rect><rect fill="#a9e6ab" height="4" rx="1" ry="1" width="4" x="209.80000000000013" y="46.699999999999996"><title>2024-09-21 22.02 mins</title></rect><rect fill="#abe7ad" height="4" rx="1" ry="1" width="4" x="209.80000000000013" y="52.1"><title>2024-09-22 7.45 mins</title></rect><rect fill="#aae6ac" height="4" rx="1" ry="1" width="4" x="215.20000000000013" y="19.7"><title>2024-09-23 18.08 mins</title></rect><rect fill="#aae6ac" height="4" rx="1" ry="1" width="4" x="215.20000000000013" y="25.1"><title>2024-09-24 13.1 mins</title></rect><rect fill="#a9e6ab" height="4" rx="1" ry="1" width="4" x="215.20000000000013" y="30.5"><title>2024-09-25 22.27 mins</title></rect><rect fill="#a9e6ab" height="4" rx="1" ry="1" width="4" x="215.20000000000013" y="35.9"><title>2024-09-26 23.07 mins</title></rect><rect fill="#a9e6ac" height="4" rx="1" ry="1" width="4" x="215.20000000000013" y="41.300000000000004"><title>2024-09-27 20.57 mins</title></rect><rect fill="#68c06d" height="4" rx="1" ry="1" width="4" x="215.20000000000013" y="46.699999999999996"><title>2024-09-28 43.68 mins</title></rect><rect fill="#67bf6c" height="4" rx="1" ry="1" width="4" x="215.20000000000013" y="52.1"><title>2024-09-29 52.65 mins</title></rect><rect fill="#549F57" height="4" rx="1" ry="1" width="4" x="220.60000000000014" y="19.7"><title>2024-09-30 99.73 mins</title></rect><rect fill="#aae6ac" height="4" rx="1" ry="1" width="4" x="220.60000000000014" y="25.1"><title>2024-10-01 18.78 mins</title></rect><rect fill="#68c06d" height="4" rx="1" ry="1" width="4" x="220.60000000000014" y="30.5"><title>2024-10-02 41.48 mins</title></rect><rect fill="#549F57" height="4" rx="1" ry="1" width="4" x="220.60000000000014" y="35.9"><title>2024-10-03 103.62 mins</title></rect><rect fill="#abe7ad" height="4" rx="1" ry="1" width="4" x="220.60000000000014" y="41.300000000000004"><title>2024-10-04 5.07 mins</title></rect><rect fill="#68c06c" height="4" rx="1" ry="1" width="4" x="220.60000000000014" y="46.699999999999996"><title>2024-10-05 47.15 mins</title></rect><rect fill="#549F57" height="4" rx="1" ry="1" width="4" x="220.60000000000014" y="52.1"><title>2024-10-06 112.35 mins</title></rect><text fill="#000000" style="font-size:2.5px; font-family:Arial" x="226.00000000000014" y="18.3">Oct</text><rect fill="#a9e6ab" height="4" rx="1" ry="1" width="4" x="226.00000000000014" y="19.7"><title>2024-10-07 24.9 mins</title></rect><rect fill="#aae6ac" height="4" rx="1" ry="1" width="4" x="226.00000000000014" y="25.1"><title>2024-10-08 15.05 mins</title></rect><rect fill="#abe7ad" height="4" rx="1" ry="1" width="4" x="226.00000000000014" y="30.5"><title>2024-10-09 6.87 mins</title></rect><rect fill="#67bf6c" height="4" rx="1" ry="1" width="4" x="226.00000000000014" y="35.9"><title>2024-10-10 55.63 mins</title></rect><rect fill="#68c06d" height="4" rx="1" ry="1" width="4" x="226.00000000000014" y="41.300000000000004"><title>2024-10-11 42.35 mins</title></rect><rect fill="#aae6ac" height="4" rx="1" ry="1" width="4" x="226.00000000000014" y="46.699999999999996"><title>2024-10-12 19.87 mins</title></rect><rect fill="#68c06d" height="4" rx="1" ry="1" width="4" x="226.00000000000014" y="52.1"><title>2024-10-13 43.33 mins</title></rect><rect fill="#68c06d" height="4" rx="1" ry="1" width="4" x="231.40000000000015" y="19.7"><title>2024-10-14 36.28 mins</title></rect><rect fill="#a9e6ab" height="4" rx="1" ry="1" width="4" x="231.40000000000015" y="25.1"><title>2024-10-15 21.68 mins</title></rect><rect fill="#549F57" height="4" rx="1" ry="1" width="4" x="231.40000000000015" y="30.5"><title>2024-10-16 134.63 mins</title></rect><rect fill="#549F57" height="4" rx="1" ry="1" width="4" x="231.40000000000015" y="35.9"><title>2024-10-17 108.95 mins</title></rect><rect fill="#a9e6ab" height="4" rx="1" ry="1" width="4" x="231.40000000000015" y="41.300000000000004"><title>2024-10-18 27.02 mins</title></rect><rect fill="#68c06d" height="4" rx="1" ry="1" width="4" x="231.40000000000015" y="46.699999999999996"><title>2024-10-19 34.47 mins</title></rect><rect fill="#aae6ac" height="4" rx="1" ry="1" width="4" x="231.40000000000015" y="52.1"><title>2024-10-20 18.75 mins</title></rect><rect fill="#abe7ad" height="4" rx="1" ry="1" width="4" x="236.80000000000015" y="19.7"><title>2024-10-21 6.63 mins</title></rect><rect fill="#a9e6ab" height="4" rx="1" ry="1" width="4" x="236.80000000000015" y="25.1"><title>2024-10-22 22.93 mins</title></rect><rect fill="#549F57" height="4" rx="1" ry="1" width="4" x="236.80000000000015" y="30.5"><title>2024-10-23 95.62 mins</title></rect><rect fill="#ace7ae" height="4" rx="1" ry="1" width="4" x="236.80000000000015" y="35.9"><title>2024-10-24 0.87 mins</title></rect><rect fill="#abe7ad" height="4" rx="1" ry="1" width="4" x="236.80000000000015" y="41.300000000000004"><title>2024-10-25 6.48 mins</title></rect><rect fill="#a9e6ab" height="4" rx="1" ry="1" width="4" x="236.80000000000015" y="46.699999999999996"><title>2024-10-26 21.45 mins</title></rect><rect fill="#abe7ad" height="4" rx="1" ry="1" width="4" x="236.80000000000015" y="52.1"><title>2024-10-27 7.92 mins</title></rect><rect fill="#aae6ad" height="4" rx="1" ry="1" width="4" x="242.20000000000016" y="19.7"><title>2024-10-28 12.23 mins</title></rect><rect fill="#67bf6c" height="4" rx="1" ry="1" width="4" x="242.20000000000016" y="25.1"><title>2024-10-29 55.32 mins</title></rect><rect fill="#67bf6c" height="4" rx="1" ry="1" width="4" x="242.20000000000016" y="30.5"><title>2024-10-30 54.72 mins</title></rect><rect fill="#abe6ad" height="4" rx="1" ry="1" width="4" x="242.20000000000016" y="35.9"><title>2024-10-31 9.98 mins</title></rect><rect fill="#abe7ad" height="4" rx="1" ry="1" width="4" x="242.20000000000016" y="41.300000000000004"><title>2024-11-01 5.87 mins</title></rect><rect fill="#549F57" height="4" rx="1" ry="1" width="4" x="242.20000000000016" y="46.699999999999996"><title>2024-11-02 127.6 mins</title></rect><rect fill="#68c06d" height="4" rx="1" ry="1" width="4" x="242.20000000000016" y="52.1"><title>2024-11-03 43.35 mins</title></rect><text fill="#000000" style="font-size:2.5px; font-family:Arial" x="247.60000000000016" y="18.3">Nov</text><rect fill="#aae6ac" height="4" rx="1" ry="1" width="4" x="247.60000000000016" y="19.7"><title>2024-11-04 18.5 mins</title></rect><rect fill="#549F57" height="4" rx="1" ry="1" width="4" x="247.60000000000016" y="25.1"><title>2024-11-05 108.1 mins</title></rect><rect fill="#aae6ac" height="4" rx="1" ry="1" width="4" x="247.60000000000016" y="30.5"><title>2024-11-06 13.42 mins</title></rect><rect fill="#549F57" height="4" rx="1" ry="1" width="4" x="247.60000000000016" y="35.9"><title>2024-11-07 192.77 mins</title></rect><rect fill="#abe6ad" height="4" rx="1" ry="1" width="4" x="247.60000000000016" y="41.300000000000004"><title>2024-11-08 11.0 mins</title></rect><rect fill="#abe7ad" height="4" rx="1" ry="1" width="4" x="247.60000000000016" y="46.699999999999996"><title>2024-11-09 7.12 mins</title></rect><rect fill="#ace7ae" height="4" rx="1" ry="1" width="4" x="247.60000000000016" y="52.1"><title>2024-11-10 3.95 mins</title></rect><rect fill="#a9e6ab" height="4" rx="1" ry="1" width="4" x="253.00000000000017" y="19.7"><title>2024-11-11 24.83 mins</title></rect><rect fill="#abe7ad" height="4" rx="1" ry="1" width="4" x="253.00000000000017" y="25.1"><title>2024-11-12 4.58 mins</title></rect><rect fill="#aae6ac" height="4" rx="1" ry="1" width="4" x="253.00000000000017" y="30.5"><title>2024-11-13 18.05 mins</title></rect><rect fill="#a9e5ab" height="4" rx="1" ry="1" width="4" x="253.00000000000017" y="35.9"><title>2024-11-14 27.68 mins</title></rect><rect fill="#68c06c" height="4" rx="1" ry="1" width="4" x="253.00000000000017" y="41.300000000000004"><title>2024-11-15 47.68 mins</title></rect><rect fill="#68c06c" height="4" rx="1" ry="1" width="4" x="253.00000000000017" y="46.699999999999996"><title>2024-11-16 46.62 mins</title></rect><rect fill="#a9e6ab" height="4" rx="1" ry="1" width="4" x="253.00000000000017" y="52.1"><title>2024-11-17 25.7 mins</title></rect><rect fill="#68c06d" height="4" rx="1" ry="1" width="4" x="258.40000000000015" y="19.7"><title>2024-11-18 35.57 mins</title></rect><rect fill="#68c06d" height="4" rx="1" ry="1" width="4" x="258.40000000000015" y="25.1"><title>2024-11-19 37.7 mins</title></rect><rect fill="#68c06d" height="4" rx="1" ry="1" width="4" x="258.40000000000015" y="30.5"><title>2024-11-20 32.65 mins</title></rect><rect fill="#a9e6ab" height="4" rx="1" ry="1" width="4" x="258.40000000000015" y="35.9"><title>2024-11-21 25.35 mins</title></rect><rect fill="#67bf6c" height="4" rx="1" ry="1" width="4" x="258.40000000000015" y="41.300000000000004"><title>2024-11-22 60.27 mins</title></rect><rect fill="#abe6ad" height="4" rx="1" ry="1" width="4" x="258.40000000000015" y="46.699999999999996"><title>2024-11-23 10.0 mins</title></rect><rect fill="#ace7ae" height="4" rx="1" ry="1" width="4" x="258.40000000000015" y="52.1"><title>2024-11-24 3.57 mins</title></rect><rect fill="#68c06d" height="4" rx="1" ry="1" width="4" x="263.8000000000001" y="19.7"><title>2024-11-25 33.62 mins</title></rect><rect fill="#a9e6ab" height="4" rx="1" ry="1" width="4" x="263.8000000000001" y="25.1"><title>2024-11-26 23.67 mins</title></rect><rect fill="#aae6ac" height="4" rx="1" ry="1" width="4" x="263.8000000000001" y="30.5"><title>2024-11-27 18.07 mins</title></rect><rect fill="#abe6ad" height="4" rx="1" ry="1" width="4" x="263.8000000000001" y="35.9"><title>2024-11-28 9.32 mins</title></rect><rect fill="#67bf6c" height="4" rx="1" ry="1" width="4" x="263.8000000000001" y="41.300000000000004"><title>2024-11-29 59.0 mins</title></rect><rect fill="#549F57" height="4" rx="1" ry="1" width="4" x="263.8000000000001" y="46.699999999999996"><title>2024-11-30 83.07 mins</title></rect><rect fill="#68c06d" height="4" rx="1" ry="1" width="4" x="263.8000000000001" y="52.1"><title>2024-12-01 30.6 mins</title></rect><text fill="#000000" style="font-size:2.5px; font-family:Arial" x="269.2000000000001" y="18.3">Dec</text><rect fill="#549F57" height="4" rx="1" ry="1" width="4" x="269.2000000000001" y="19.7"><title>2024-12-02 82.8 mins</title></rect><rect fill="#68c06d" height="4" rx="1" ry="1" width="4" x="269.2000000000001" y="25.1"><title>2024-12-03 36.35 mins</title></rect><rect fill="#ace7ae" height="4" rx="1" ry="1" width="4" x="269.2000000000001" y="30.5"><title>2024-12-04 3.78 mins</title></rect><rect fill="#68c06d" height="4" rx="1" ry="1" width="4" x="269.2000000000001" y="35.9"><title>2024-12-05 34.98 mins</title></rect><rect fill="#68c06d" height="4" rx="1" ry="1" width="4" x="269.2000000000001" y="41.300000000000004"><title>2024-12-06 30.73 mins</title></rect><rect fill="#ace7ae" height="4" rx="1" ry="1" width="4" x="269.2000000000001" y="46.699999999999996"><title>2024-12-07 2.5 mins</title></rect><rect fill="#ace7ae" height="4" rx="1" ry="1" width="4" x="269.2000000000001" y="52.1"><title>2024-12-08 3.5 mins</title></rect><rect fill="#a9e6ab" height="4" rx="1" ry="1" width="4" x="274.6000000000001" y="19.7"><title>2024-12-09 22.72 mins</title></rect><rect fill="#68c06d" height="4" rx="1" ry="1" width="4" x="274.6000000000001" y="25.1"><title>2024-12-10 30.98 mins</title></rect><rect fill="#aae6ac" height="4" rx="1" ry="1" width="4" x="274.6000000000001" y="30.5"><title>2024-12-11 15.82 mins</title></rect><rect fill="#549F57" height="4" rx="1" ry="1" width="4" x="274.6000000000001" y="35.9"><title>2024-12-12 79.55 mins</title></rect><rect fill="#ace7ae" height="4" rx="1" ry="1" width="4" x="274.6000000000001" y="41.300000000000004"><title>2024-12-13 1.03 mins</title></rect><rect fill="#abe7ad" height="4" rx="1" ry="1" width="4" x="274.6000000000001" y="46.699999999999996"><title>2024-12-14 4.4 mins</title></rect><rect fill="#abe7ad" height="4" rx="1" ry="1" width="4" x="274.6000000000001" y="52.1"><title>2024-12-15 6.88 mins</title></rect><rect fill="#abe6ad" height="4" rx="1" ry="1" width="4" x="280.00000000000006" y="19.7"><title>2024-12-16 11.0 mins</title></rect><rect fill="#abe7ae" height="4" rx="1" ry="1" width="4" x="280.00000000000006" y="25.1"><title>2024-12-17 4.13 mins</title></rect><rect fill="#abe6ad" height="4" rx="1" ry="1" width="4" x="280.00000000000006" y="30.5"><title>2024-12-18 9.88 mins</title></rect><rect fill="#aae6ac" height="4" rx="1" ry="1" width="4" x="280.00000000000006" y="35.9"><title>2024-12-19 16.43 mins</title></rect><rect fill="#abe6ad" height="4" rx="1" ry="1" width="4" x="280.00000000000006" y="41.300000000000004"><title>2024-12-20 11.08 mins</title></rect><rect fill="#67bf6c" height="4" rx="1" ry="1" width="4" x="280.00000000000006" y="46.699999999999996"><title>2024-12-21 51.5 mins</title></rect><rect fill="#67bf6c" height="4" rx="1" ry="1" width="4" x="280.00000000000006" y="52.1"><title>2024-12-22 60.47 mins</title></rect><rect fill="#68c06d" height="4" rx="1" ry="1" width="4" x="285.40000000000003" y="19.7"><title>2024-12-23 41.17 mins</title></rect><rect fill="#abe7ad" height="4" rx="1" ry="1" width="4" x="285.40000000000003" y="25.1"><title>2024-12-24 4.83 mins</title></rect><rect fill="#a9e6ab" height="4" rx="1" ry="1" width="4" x="285.40000000000003" y="30.5"><title>2024-12-25 21.12 mins</title></rect><rect fill="#ace7ae" height="4" rx="1" ry="1" width="4" x="285.40000000000003" y="35.9"><title>2024-12-26 0.3 mins</title></rect><rect fill="#EBEDF0" height="4" rx="1" ry="1" width="4" x="285.40000000000003" y="41.300000000000004"><title>2024-12-27</title></rect><rect fill="#EBEDF0" height="4" rx="1" ry="1" width="4" x="285.40000000000003" y="46.699999999999996"><title>2024-12-28</title></rect><rect fill="#EBEDF0" height="4" rx="1" ry="1" width="4" x="285.40000000000003" y="52.1"><title>2024-12-29</title></rect><rect fill="#EBEDF0" height="4" rx="1" ry="1" width="4" x="290.8" y="19.7"><title>2024-12-30</title></rect><rect fill="#EBEDF0" height="4" rx="1" ry="1" width="4" x="290.8" y="25.1"><title>2024-12-31</title></rect></svg>